<?xml version="1.0" encoding="UTF-8"?>
<!-- Uploaded to: SVG Find, www.svgrepo.com, Generator: SVG Find Mixer Tools -->
<svg fill="#000000" width="800px" height="800px" version="1.1" viewBox="144 144 512 512" xmlns="http://www.w3.org/2000/svg">
 <path d="m296.21 609.84c27.207 0 54.328-10.328 74.984-30.984l77.168-77.168c20.07-20.07 31.066-46.688 31.066-75.066 0-28.383-11-55-31.066-75.066-8.3984-8.3984-17.887-15.113-28.297-20.238l59.535-59.535c6.4648-6.4648 15.113-9.9922 24.266-9.9922s17.801 3.5273 24.266 9.9922c6.4648 6.4648 9.9922 15.113 9.9922 24.266 0 9.1523-3.5273 17.801-9.9922 24.266l-42.656 42.656c-3.2734 3.2734-3.2734 8.5664 0 11.84 3.2734 3.2734 8.5664 3.2734 11.84 0l42.656-42.656c9.6562-9.6562 14.945-22.504 14.945-36.105 0-13.688-5.2891-26.535-14.945-36.191s-22.504-14.945-36.105-14.945c-13.688 0-26.535 5.2891-36.105 14.945l-77.168 77.168c-9.6562 9.6562-14.945 22.504-14.945 36.105 0 13.688 5.2891 26.535 14.945 36.105 4.7031 4.7031 10.41 8.3984 16.543 11 0.33594 2.0156 0.58594 4.1133 0.58594 6.2148 0 9.1523-3.5273 17.801-9.9922 24.266l-4.8711 4.8711c-10.914-4.4492-20.738-10.914-29.223-19.312-16.879-16.879-26.199-39.297-26.199-63.145s9.3203-46.266 26.199-63.145l77.168-77.168c34.848-34.848 91.441-34.848 126.29 0s34.848 91.527 0 126.29l-68.52 68.52c-3.2734 3.2734-3.2734 8.5664 0 11.84 3.2734 3.2734 8.5664 3.2734 11.84 0l68.52-68.52c41.395-41.395 41.395-108.66 0-150.05s-108.66-41.395-150.05 0l-77.168 77.168c-20.07 20.07-31.066 46.688-31.066 75.066 0 28.383 11 55 31.066 75.066 8.3984 8.3984 17.887 15.113 28.297 20.238l-59.535 59.535c-6.4648 6.4648-15.113 10.078-24.266 10.078s-17.801-3.5273-24.266-10.078c-6.4648-6.4648-9.9922-15.113-9.9922-24.266 0-9.1523 3.5273-17.801 9.9922-24.266l42.656-42.656c3.2734-3.2734 3.2734-8.5664 0-11.84-3.2734-3.2734-8.5664-3.2734-11.84 0l-42.656 42.656c-9.6562 9.6562-14.945 22.504-14.945 36.105 0 13.688 5.2891 26.535 14.945 36.105 9.6562 9.5742 22.504 14.945 36.105 14.945 13.688 0 26.535-5.2891 36.105-14.945l77.168-77.168c9.6562-9.6562 14.945-22.504 14.945-36.105 0-13.688-5.2891-26.535-14.945-36.105-4.7031-4.7031-10.41-8.3984-16.543-11-0.33594-2.0156-0.58594-4.1133-0.58594-6.2148 0-9.1523 3.5273-17.801 10.078-24.266l4.8711-4.8711c10.914 4.4492 20.738 10.914 29.223 19.312 16.879 16.879 26.199 39.297 26.199 63.145s-9.3203 46.266-26.199 63.145l-77.168 77.168c-34.848 34.848-91.441 34.848-126.29 0-34.848-34.848-34.848-91.441 0-126.29l68.52-68.52c3.2734-3.2734 3.2734-8.5664 0-11.84-3.2734-3.2734-8.5664-3.2734-11.84 0l-68.609 68.605c-41.395 41.395-41.395 108.66 0 150.05 20.656 20.656 47.863 30.984 75.07 30.984z"/>
</svg>